<?xml version="1.0" encoding="UTF-8"?>
<svg version="1.1" viewBox="0 0 3000 2000" xmlns="http://www.w3.org/2000/svg">
<path d="m-0.5-0.5h3e3v1300c-2.36 3.92-3.86 8.26-4.5 13-0.8 20.89 0.03 41.73 2.5 62.5-3.18 40.17-23.84 66.5-62 79-14 3.47-26.67 0.8-38-8-14.57-13.96-24.4-30.79-29.5-50.5-7.98-30.47-11.48-61.47-10.5-93 1.45-76.37 0.29-152.71-3.5-229-1.96-40.92-6.29-81.59-13-122-2.98-18.255-7.98-35.922-15-53-11.77-20.102-28.27-34.935-49.5-44.5-24.4-8.987-46.73-5.321-67 11-20.72 18.254-35.89 40.42-45.5 66.5-4.81 13.083-8.81 26.417-12 40-12.88 63.47-22.21 127.47-28 192-9.64 97.12-15.81 194.45-18.5 292 2.19 35.3 3.02 70.63 2.5 106-0.28 37.43-8.95 72.77-26 106-27.25 43.32-62.75 51.49-106.5 24.5-22.63-18.06-36.46-41.56-41.5-70.5-2.93-13.87-4.93-27.87-6-42-9.67-126.03-19.67-252.03-30-378-2.37-33.12-13.04-63.12-32-90-11.39-13.94-25.56-23.77-42.5-29.5-28-5.58-46.5 5.25-55.5 32.5-7.1 36.44-13.94 72.94-20.5 109.5-4.38 23.01-10.54 45.51-18.5 67.5-20.29 39.74-52.79 60.74-97.5 63-30.8-0.97-55.64-13.64-74.5-38-12.81-17.95-22.14-37.61-28-59-7.26-26.57-12.26-53.57-15-81-4.42-49.97-8.42-99.97-12-150-7.02-51.686-35.85-83.853-86.5-96.5-38.58 0.035-67.74 16.535-87.5 49.5-8.43 15.61-15.09 31.94-20 49-15.42 55.63-24.42 112.29-27 170-1.65 37.33-3.31 74.67-5 112-5.35 86.4-27.68 168.07-67 245-13.04 24.02-28.04 46.69-45 68-30.41 34.21-68.41 53.87-114 59-44.77-2.88-81.77-21.22-111-55-25.58-31.47-45.24-66.47-59-105-25.86-75.14-39.86-152.48-42-232-0.67-35.17-0.51-70.34 0.5-105.5 0.85-54.06-7.65-106.56-25.5-157.5-13.55-35.969-35.05-66.135-64.5-90.5-43.76-31.222-91.1-37.889-142-20-54.38 22.727-88.22 62.894-101.5 120.5-6.131 31.12-12.798 62.12-20 93-4.588 17.51-12.588 33.18-24 47-20.998 22.01-45.832 28.17-74.5 18.5-25.809-15.17-42.643-37.33-50.5-66.5-2.878-11.99-4.378-24.16-4.5-36.5 1.105-27.85 2.605-55.69 4.5-83.5 1.058-24.061 0.391-48.061-2-72-6.297-22.964-20.797-38.131-43.5-45.5-18.205-5.609-35.872-4.275-53 4-13.43 7.694-21.263 19.194-23.5 34.5-0.667 9-0.667 18 0 27 4.546 37.584 8.213 75.25 11 113 2.05 31.61 0.05 62.94-6 94-11.054 50.65-37.888 90.48-80.5 119.5-52.297 30.49-101.96 26.82-149-11-27.301-25.42-45.801-56.25-55.5-92.5-3.768-14.17-6.768-28.51-9-43-3.549-28.58-6.215-57.25-8-86-2.371-47.04-5.371-94.043-9-141-6.284-61.861-26.617-118.53-61-170-26.49-28.668-58.657-37.834-96.5-27.5-38.277 12.611-62.444 38.445-72.5 77.5-2.824 10.963-5.491 21.963-8 33-14.027 71.801-28.694 143.47-44 215-5.715 27.2-14.048 53.53-25 79-24.097 35.97-57.93 53.3-101.5 52v-50c16.843 7.18 29.01 2.18 36.5-15 5.124-13.61 3.7906-26.61-4-39-9.1218-17.92-19.955-34.59-32.5-50v-1016z" fill="#361608" opacity=".999"/>
<path d="m823.5 863.5c0.06-0.543 0.393-0.876 1-1 32.357 16.221 52.191 42.221 59.5 78 1.325 6.282 2.325 12.615 3 19 0.333 38.333 0.667 76.67 1 115 0.274 22.66 4.941 44.32 14 65 8.206 13.03 20.039 20.36 35.5 22-31.887 4.31-54.054-8.36-66.5-38-5.143-13.52-8.143-27.52-9-42-0.606-39.34-0.439-78.67 0.5-118 2.966-27.9-2.534-53.9-16.5-78-6.043-8.877-13.543-16.21-22.5-22z" fill="#623516"/>
<path d="m1245.5 903.5c45.98-0.594 83.48 17.072 112.5 53 30.64 42.915 46.3 90.92 47 144 1.78 40.77-1.55 81.1-10 121-7.95-55.74-16.95-111.41-27-167-10.67-52.59-36.84-95.427-78.5-128.5-13.42-9.876-28.08-17.376-44-22.5z" fill="#623516"/>
<path d="m1948.5 904.5c-2.24-0.295-4.24 0.039-6 1-1.26 0.039-2.26-0.461-3-1.5 3.2-0.805 6.2-0.638 9 0.5z" fill="#49240e"/>
<path d="m1942.5 905.5c1.76-0.961 3.76-1.295 6-1 35.56 3.419 62.39 20.419 80.5 51 15.16 26.636 23.49 55.3 25 86 1.38 30.34-1.12 60.34-7.5 90-6.08-41.46-12.91-82.79-20.5-124-9.2-39.277-30.36-70.11-63.5-92.5-6.3-3.983-12.97-7.15-20-9.5z" fill="#623516"/>
<path d="m-0.5 1015.5c12.545 15.41 23.378 32.08 32.5 50 7.7906 12.39 9.124 25.39 4 39-7.4901 17.18-19.657 22.18-36.5 15v-104z" fill="#623516"/>
<path d="m2337.5 1057.5c25.66-0.09 47.16 9.57 64.5 29 23.4 30.81 38.06 65.48 44 104 8.81 61.03 8.48 122.03-1 183-5.45-51.71-11.45-103.38-18-155-4.13-45.41-19.13-86.75-45-124-9.58-12.92-21.08-23.75-34.5-32.5-3.24-1.79-6.57-3.29-10-4.5z" fill="#623516"/>
<path d="m479.5 1101.5c12.655 1.08 22.821 6.75 30.5 17 8.207 14.41 15.873 29.08 23 44 10.328 14.75 23.828 25.59 40.5 32.5 13.592 3.32 27.258 6.32 41 9 17.356 5.04 24.522 16.54 21.5 34.5-3.106 8.11-8.606 13.94-16.5 17.5-29.186 10.98-58.519 11.32-88 1-35.316-15.41-56.15-42.25-62.5-80.5-2.35-17.6-3.017-35.26-2-53 0.874-9.44 5.04-16.77 12.5-22z" fill="#623516"/>
<path d="m2067.5 1203.5c6.48-0.68 11.98 1.32 16.5 6 2 3.33 4 6.67 6 10 6.12 23.78 19.62 41.94 40.5 54.5 8.41 3.14 16.75 6.47 25 10 10.78 7.39 12.94 16.89 6.5 28.5-6.6 8.05-15.1 12.55-25.5 13.5-16.35 2.1-31.02-1.9-44-12-27.13-25.33-38.3-56.5-33.5-93.5 0.23-7.13 3.06-12.79 8.5-17z" fill="#623516"/>
<path d="m2894.5 1331.5c5.22-0.93 9.39 0.73 12.5 5 2.25 3.51 4.25 7.17 6 11 2 9.66 5 18.99 9 28 6.64 5.63 12.97 11.63 19 18 1.43 8.32-1.41 14.82-8.5 19.5-9.31 6.82-19.31 8.15-30 4-7.63-5.99-12.47-13.83-14.5-23.5-3.66-17.77-3.33-35.43 1-53 1.34-3.36 3.18-6.36 5.5-9z" fill="#623516"/>
<path d="m1450.5 1487.5c6.02-0.54 11.69 0.63 17 3.5 19.83 13.17 36.33 29.67 49.5 49.5 15.13 16.77 33.63 28.27 55.5 34.5 11.53 4.86 19.69 13.03 24.5 24.5 0.84 14.16-5 24.66-17.5 31.5-37.13 15.92-70.47 10.26-100-17-22.3-20.32-37.14-45.15-44.5-74.5-3.25-15.93-0.92-30.93 7-45 2.44-2.95 5.27-5.29 8.5-7z" fill="#623516"/>
<path d="m2473.5 1558.5c6.74 1.63 12.58 4.96 17.5 10 1.61 2.88 2.94 5.88 4 9 0.81 28.62 12.48 51.62 35 69 6.5 7.97 7.83 16.64 4 26-12.54 10.98-26.37 12.81-41.5 5.5-10.27-7.69-17.77-17.52-22.5-29.5-10.54-25.8-12.21-52.14-5-79 1.58-4.73 4.41-8.4 8.5-11z" fill="#623516"/>
</svg>
